<svg xmlns="http://www.w3.org/2000/svg" viewBox="0 0 1280 480" width="1280" height="480" role="img" aria-labelledby="bt">
<title id="bt">SWITCHBOARD: every switch on your Mac, one click away (the operator, with permission bulbs)</title>
<defs><pattern id="dots" width="16" height="16" patternUnits="userSpaceOnUse"><circle cx="2" cy="2" r="1" fill="#30363d"/></pattern></defs>
<rect width="1280" height="480" rx="18" fill="#0d1117"/>
<rect width="1280" height="480" rx="18" fill="url(#dots)" opacity=".6"/>
<rect x="10" y="10" width="1260" height="460" rx="12" fill="none" stroke="#4fd1b5" stroke-width="2.5"/>
<rect x="18" y="18" width="1244" height="444" rx="8" fill="none" stroke="#4fd1b5" stroke-opacity=".45" stroke-width="1.5"/>
<g shape-rendering="crispEdges"><rect x="44" y="40" width="640" height="300" fill="#6b3f1f"/><rect x="52" y="48" width="624" height="284" fill="#4a2a14"/><rect x="36" y="340" width="656" height="22" fill="#8a5a2b"/><rect x="36" y="362" width="656" height="6" fill="#4a2a14"/><rect x="64" y="368" width="18" height="60" fill="#4a2a14"/><rect x="646" y="368" width="18" height="60" fill="#4a2a14"/></g>
<g shape-rendering="crispEdges"><rect x="52" y="124" width="624" height="6" fill="#6b3f1f"/></g>
<g shape-rendering="crispEdges"><rect x="68" y="54" width="136" height="24" fill="#e8dcc0"/></g>
<text x="136" y="71" font-family="ui-monospace, SFMono-Regular, Menlo, Consolas, 'Liberation Mono', monospace" font-size="13" fill="#4a2a14" font-weight="bold" text-anchor="middle" xml:space="preserve" letter-spacing="1">PERMISSIONS</text>
<text x="68" y="96" font-family="ui-monospace, SFMono-Regular, Menlo, Consolas, 'Liberation Mono', monospace" font-size="12" fill="#3ddc84" font-weight="normal" text-anchor="start" xml:space="preserve">green allow</text>
<text x="68" y="112" font-family="ui-monospace, SFMono-Regular, Menlo, Consolas, 'Liberation Mono', monospace" font-size="12" fill="#f0b429" font-weight="normal" text-anchor="start" xml:space="preserve">amber ask</text>
<text x="144" y="112" font-family="ui-monospace, SFMono-Regular, Menlo, Consolas, 'Liberation Mono', monospace" font-size="12" fill="#9aa3ad" font-weight="normal" text-anchor="start" xml:space="preserve">dark block</text>
<circle cx="244.5" cy="65" r="15" fill="#3ddc84" opacity=".22"><animate attributeName="opacity" values=".12;.3;.12" begin="0.0s" dur="2.4s" repeatCount="indefinite"/></circle><g shape-rendering="crispEdges"><rect x="240" y="56" width="9" height="3" fill="#3ddc84"/><rect x="237" y="59" width="15" height="3" fill="#3ddc84"/><rect x="234" y="62" width="12" height="3" fill="#3ddc84"/><rect x="246" y="62" width="3" height="3" fill="#ffffff"/><rect x="249" y="62" width="6" height="3" fill="#3ddc84"/><rect x="234" y="65" width="21" height="3" fill="#3ddc84"/><rect x="237" y="68" width="15" height="3" fill="#3ddc84"/><rect x="240" y="71" width="9" height="3" fill="#3ddc84"/><rect x="240" y="74" width="9" height="3" fill="#8b949e"/><rect x="240" y="77" width="9" height="3" fill="#8b949e"/></g>
<text x="244" y="104" font-family="ui-monospace, SFMono-Regular, Menlo, Consolas, 'Liberation Mono', monospace" font-size="12" fill="#e8dcc0" font-weight="normal" text-anchor="middle" xml:space="preserve">GitHub</text>
<circle cx="308.5" cy="65" r="15" fill="#3ddc84" opacity=".22"><animate attributeName="opacity" values=".12;.3;.12" begin="0.3s" dur="2.4s" repeatCount="indefinite"/></circle><g shape-rendering="crispEdges"><rect x="304" y="56" width="9" height="3" fill="#3ddc84"/><rect x="301" y="59" width="15" height="3" fill="#3ddc84"/><rect x="298" y="62" width="12" height="3" fill="#3ddc84"/><rect x="310" y="62" width="3" height="3" fill="#ffffff"/><rect x="313" y="62" width="6" height="3" fill="#3ddc84"/><rect x="298" y="65" width="21" height="3" fill="#3ddc84"/><rect x="301" y="68" width="15" height="3" fill="#3ddc84"/><rect x="304" y="71" width="9" height="3" fill="#3ddc84"/><rect x="304" y="74" width="9" height="3" fill="#8b949e"/><rect x="304" y="77" width="9" height="3" fill="#8b949e"/></g>
<text x="308" y="104" font-family="ui-monospace, SFMono-Regular, Menlo, Consolas, 'Liberation Mono', monospace" font-size="12" fill="#e8dcc0" font-weight="normal" text-anchor="middle" xml:space="preserve">Slack</text>
<circle cx="372.5" cy="65" r="15" fill="#f0b429" opacity=".22"><animate attributeName="opacity" values=".12;.3;.12" begin="0.6s" dur="2.4s" repeatCount="indefinite"/></circle><g shape-rendering="crispEdges"><rect x="368" y="56" width="9" height="3" fill="#f0b429"/><rect x="365" y="59" width="15" height="3" fill="#f0b429"/><rect x="362" y="62" width="12" height="3" fill="#f0b429"/><rect x="374" y="62" width="3" height="3" fill="#ffffff"/><rect x="377" y="62" width="6" height="3" fill="#f0b429"/><rect x="362" y="65" width="21" height="3" fill="#f0b429"/><rect x="365" y="68" width="15" height="3" fill="#f0b429"/><rect x="368" y="71" width="9" height="3" fill="#f0b429"/><rect x="368" y="74" width="9" height="3" fill="#8b949e"/><rect x="368" y="77" width="9" height="3" fill="#8b949e"/></g>
<text x="372" y="104" font-family="ui-monospace, SFMono-Regular, Menlo, Consolas, 'Liberation Mono', monospace" font-size="12" fill="#e8dcc0" font-weight="normal" text-anchor="middle" xml:space="preserve">Linear</text>
<circle cx="436.5" cy="65" r="15" fill="#3ddc84" opacity=".22"><animate attributeName="opacity" values=".12;.3;.12" begin="0.8999999999999999s" dur="2.4s" repeatCount="indefinite"/></circle><g shape-rendering="crispEdges"><rect x="432" y="56" width="9" height="3" fill="#3ddc84"/><rect x="429" y="59" width="15" height="3" fill="#3ddc84"/><rect x="426" y="62" width="12" height="3" fill="#3ddc84"/><rect x="438" y="62" width="3" height="3" fill="#ffffff"/><rect x="441" y="62" width="6" height="3" fill="#3ddc84"/><rect x="426" y="65" width="21" height="3" fill="#3ddc84"/><rect x="429" y="68" width="15" height="3" fill="#3ddc84"/><rect x="432" y="71" width="9" height="3" fill="#3ddc84"/><rect x="432" y="74" width="9" height="3" fill="#8b949e"/><rect x="432" y="77" width="9" height="3" fill="#8b949e"/></g>
<text x="436" y="104" font-family="ui-monospace, SFMono-Regular, Menlo, Consolas, 'Liberation Mono', monospace" font-size="12" fill="#e8dcc0" font-weight="normal" text-anchor="middle" xml:space="preserve">commit</text>
<circle cx="500.5" cy="65" r="15" fill="#f0b429" opacity=".22"><animate attributeName="opacity" values=".12;.3;.12" begin="1.2s" dur="2.4s" repeatCount="indefinite"/></circle><g shape-rendering="crispEdges"><rect x="496" y="56" width="9" height="3" fill="#f0b429"/><rect x="493" y="59" width="15" height="3" fill="#f0b429"/><rect x="490" y="62" width="12" height="3" fill="#f0b429"/><rect x="502" y="62" width="3" height="3" fill="#ffffff"/><rect x="505" y="62" width="6" height="3" fill="#f0b429"/><rect x="490" y="65" width="21" height="3" fill="#f0b429"/><rect x="493" y="68" width="15" height="3" fill="#f0b429"/><rect x="496" y="71" width="9" height="3" fill="#f0b429"/><rect x="496" y="74" width="9" height="3" fill="#8b949e"/><rect x="496" y="77" width="9" height="3" fill="#8b949e"/></g>
<text x="500" y="104" font-family="ui-monospace, SFMono-Regular, Menlo, Consolas, 'Liberation Mono', monospace" font-size="12" fill="#e8dcc0" font-weight="normal" text-anchor="middle" xml:space="preserve">push</text>
<g shape-rendering="crispEdges"><rect x="560" y="56" width="9" height="3" fill="#3a3f47"/><rect x="557" y="59" width="15" height="3" fill="#3a3f47"/><rect x="554" y="62" width="12" height="3" fill="#3a3f47"/><rect x="566" y="62" width="3" height="3" fill="#555c66"/><rect x="569" y="62" width="6" height="3" fill="#3a3f47"/><rect x="554" y="65" width="21" height="3" fill="#3a3f47"/><rect x="557" y="68" width="15" height="3" fill="#3a3f47"/><rect x="560" y="71" width="9" height="3" fill="#3a3f47"/><rect x="560" y="74" width="9" height="3" fill="#8b949e"/><rect x="560" y="77" width="9" height="3" fill="#8b949e"/></g>
<text x="564" y="104" font-family="ui-monospace, SFMono-Regular, Menlo, Consolas, 'Liberation Mono', monospace" font-size="12" fill="#9aa3ad" font-weight="normal" text-anchor="middle" xml:space="preserve">deploy</text>
<g shape-rendering="crispEdges"><rect x="624" y="56" width="9" height="3" fill="#3a3f47"/><rect x="621" y="59" width="15" height="3" fill="#3a3f47"/><rect x="618" y="62" width="12" height="3" fill="#3a3f47"/><rect x="630" y="62" width="3" height="3" fill="#555c66"/><rect x="633" y="62" width="6" height="3" fill="#3a3f47"/><rect x="618" y="65" width="21" height="3" fill="#3a3f47"/><rect x="621" y="68" width="15" height="3" fill="#3a3f47"/><rect x="624" y="71" width="9" height="3" fill="#3a3f47"/><rect x="624" y="74" width="9" height="3" fill="#8b949e"/><rect x="624" y="77" width="9" height="3" fill="#8b949e"/></g>
<text x="628" y="104" font-family="ui-monospace, SFMono-Regular, Menlo, Consolas, 'Liberation Mono', monospace" font-size="12" fill="#9aa3ad" font-weight="normal" text-anchor="middle" xml:space="preserve">seats</text>
<g shape-rendering="crispEdges"><rect x="68" y="138" width="136" height="24" fill="#e8dcc0"/></g>
<text x="136" y="156" font-family="ui-monospace, SFMono-Regular, Menlo, Consolas, 'Liberation Mono', monospace" font-size="14" fill="#4a2a14" font-weight="bold" text-anchor="middle" xml:space="preserve" letter-spacing="2">AGENTS</text>
<rect x="80" y="184" width="12" height="12" fill="#2f9e5b" shape-rendering="crispEdges"><animate attributeName="opacity" values="1;.25;1" begin="0.0s" dur="1.1s" repeatCount="indefinite"/></rect>
<g shape-rendering="crispEdges"><rect x="112" y="180" width="20" height="20" fill="#c9a86a"/><rect x="117" y="185" width="10" height="10" fill="#05070a"/></g>
<text x="142" y="196" font-family="ui-monospace, SFMono-Regular, Menlo, Consolas, 'Liberation Mono', monospace" font-size="14" fill="#e8dcc0" font-weight="normal" text-anchor="start" xml:space="preserve">GitHub</text>
<g shape-rendering="crispEdges"><rect x="80" y="230" width="12" height="12" fill="#f0b429"/></g>
<g shape-rendering="crispEdges"><rect x="112" y="226" width="20" height="20" fill="#c9a86a"/><rect x="117" y="231" width="10" height="10" fill="#05070a"/></g>
<text x="142" y="242" font-family="ui-monospace, SFMono-Regular, Menlo, Consolas, 'Liberation Mono', monospace" font-size="14" fill="#e8dcc0" font-weight="normal" text-anchor="start" xml:space="preserve">Slack</text>
<rect x="80" y="276" width="12" height="12" fill="#e5484d" shape-rendering="crispEdges"><animate attributeName="opacity" values="1;.25;1" begin="0.34s" dur="1.56s" repeatCount="indefinite"/></rect>
<g shape-rendering="crispEdges"><rect x="112" y="272" width="20" height="20" fill="#c9a86a"/><rect x="117" y="277" width="10" height="10" fill="#05070a"/></g>
<text x="142" y="288" font-family="ui-monospace, SFMono-Regular, Menlo, Consolas, 'Liberation Mono', monospace" font-size="14" fill="#e8dcc0" font-weight="normal" text-anchor="start" xml:space="preserve">deploy</text>
<g shape-rendering="crispEdges"><rect x="220" y="138" width="136" height="24" fill="#e8dcc0"/></g>
<text x="288" y="156" font-family="ui-monospace, SFMono-Regular, Menlo, Consolas, 'Liberation Mono', monospace" font-size="14" fill="#4a2a14" font-weight="bold" text-anchor="middle" xml:space="preserve" letter-spacing="2">USAGE</text>
<g shape-rendering="crispEdges"><rect x="232" y="184" width="12" height="12" fill="#2f9e5b"/></g>
<g shape-rendering="crispEdges"><rect x="264" y="180" width="20" height="20" fill="#c9a86a"/><rect x="269" y="185" width="10" height="10" fill="#05070a"/></g>
<text x="294" y="196" font-family="ui-monospace, SFMono-Regular, Menlo, Consolas, 'Liberation Mono', monospace" font-size="14" fill="#e8dcc0" font-weight="normal" text-anchor="start" xml:space="preserve">Claude</text>
<rect x="232" y="230" width="12" height="12" fill="#f0b429" shape-rendering="crispEdges"><animate attributeName="opacity" values="1;.25;1" begin="0.68s" dur="1.56s" repeatCount="indefinite"/></rect>
<g shape-rendering="crispEdges"><rect x="264" y="226" width="20" height="20" fill="#c9a86a"/><rect x="269" y="231" width="10" height="10" fill="#05070a"/></g>
<text x="294" y="242" font-family="ui-monospace, SFMono-Regular, Menlo, Consolas, 'Liberation Mono', monospace" font-size="14" fill="#e8dcc0" font-weight="normal" text-anchor="start" xml:space="preserve">Codex</text>
<g shape-rendering="crispEdges"><rect x="232" y="276" width="12" height="12" fill="#2f9e5b"/></g>
<g shape-rendering="crispEdges"><rect x="264" y="272" width="20" height="20" fill="#c9a86a"/><rect x="269" y="277" width="10" height="10" fill="#05070a"/></g>
<text x="294" y="288" font-family="ui-monospace, SFMono-Regular, Menlo, Consolas, 'Liberation Mono', monospace" font-size="14" fill="#e8dcc0" font-weight="normal" text-anchor="start" xml:space="preserve">alerts</text>
<g shape-rendering="crispEdges"><rect x="372" y="138" width="136" height="24" fill="#e8dcc0"/></g>
<text x="440" y="156" font-family="ui-monospace, SFMono-Regular, Menlo, Consolas, 'Liberation Mono', monospace" font-size="14" fill="#4a2a14" font-weight="bold" text-anchor="middle" xml:space="preserve" letter-spacing="2">MACHINE</text>
<rect x="384" y="184" width="12" height="12" fill="#2f9e5b" shape-rendering="crispEdges"><animate attributeName="opacity" values="1;.25;1" begin="1.02s" dur="1.56s" repeatCount="indefinite"/></rect>
<g shape-rendering="crispEdges"><rect x="416" y="180" width="20" height="20" fill="#c9a86a"/><rect x="421" y="185" width="10" height="10" fill="#05070a"/></g>
<text x="446" y="196" font-family="ui-monospace, SFMono-Regular, Menlo, Consolas, 'Liberation Mono', monospace" font-size="14" fill="#e8dcc0" font-weight="normal" text-anchor="start" xml:space="preserve">awake</text>
<g shape-rendering="crispEdges"><rect x="384" y="230" width="12" height="12" fill="#e5484d"/></g>
<g shape-rendering="crispEdges"><rect x="416" y="226" width="20" height="20" fill="#c9a86a"/><rect x="421" y="231" width="10" height="10" fill="#05070a"/></g>
<text x="446" y="242" font-family="ui-monospace, SFMono-Regular, Menlo, Consolas, 'Liberation Mono', monospace" font-size="14" fill="#e8dcc0" font-weight="normal" text-anchor="start" xml:space="preserve">jobs</text>
<rect x="384" y="276" width="12" height="12" fill="#2f9e5b" shape-rendering="crispEdges"><animate attributeName="opacity" values="1;.25;1" begin="1.36s" dur="2.02s" repeatCount="indefinite"/></rect>
<g shape-rendering="crispEdges"><rect x="416" y="272" width="20" height="20" fill="#c9a86a"/><rect x="421" y="277" width="10" height="10" fill="#05070a"/></g>
<text x="446" y="288" font-family="ui-monospace, SFMono-Regular, Menlo, Consolas, 'Liberation Mono', monospace" font-size="14" fill="#e8dcc0" font-weight="normal" text-anchor="start" xml:space="preserve">Wake</text>
<g shape-rendering="crispEdges"><rect x="524" y="138" width="136" height="24" fill="#e8dcc0"/></g>
<text x="592" y="156" font-family="ui-monospace, SFMono-Regular, Menlo, Consolas, 'Liberation Mono', monospace" font-size="14" fill="#4a2a14" font-weight="bold" text-anchor="middle" xml:space="preserve" letter-spacing="2">HOME</text>
<g shape-rendering="crispEdges"><rect x="536" y="184" width="12" height="12" fill="#f0b429"/></g>
<g shape-rendering="crispEdges"><rect x="568" y="180" width="20" height="20" fill="#c9a86a"/><rect x="573" y="185" width="10" height="10" fill="#05070a"/></g>
<text x="598" y="196" font-family="ui-monospace, SFMono-Regular, Menlo, Consolas, 'Liberation Mono', monospace" font-size="14" fill="#e8dcc0" font-weight="normal" text-anchor="start" xml:space="preserve">desk</text>
<rect x="536" y="230" width="12" height="12" fill="#2f9e5b" shape-rendering="crispEdges"><animate attributeName="opacity" values="1;.25;1" begin="1.7000000000000002s" dur="2.02s" repeatCount="indefinite"/></rect>
<g shape-rendering="crispEdges"><rect x="568" y="226" width="20" height="20" fill="#c9a86a"/><rect x="573" y="231" width="10" height="10" fill="#05070a"/></g>
<text x="598" y="242" font-family="ui-monospace, SFMono-Regular, Menlo, Consolas, 'Liberation Mono', monospace" font-size="14" fill="#e8dcc0" font-weight="normal" text-anchor="start" xml:space="preserve">lamp</text>
<g shape-rendering="crispEdges"><rect x="536" y="276" width="12" height="12" fill="#f0b429"/></g>
<g shape-rendering="crispEdges"><rect x="568" y="272" width="20" height="20" fill="#c9a86a"/><rect x="573" y="277" width="10" height="10" fill="#05070a"/></g>
<text x="598" y="288" font-family="ui-monospace, SFMono-Regular, Menlo, Consolas, 'Liberation Mono', monospace" font-size="14" fill="#e8dcc0" font-weight="normal" text-anchor="start" xml:space="preserve">scene</text>
<g shape-rendering="crispEdges"><rect x="148" y="348" width="4" height="4" fill="#e5484d"/><rect x="148" y="352" width="4" height="4" fill="#e5484d"/><rect x="144" y="352" width="4" height="4" fill="#e5484d"/><rect x="144" y="356" width="4" height="4" fill="#e5484d"/><rect x="140" y="356" width="4" height="4" fill="#e5484d"/><rect x="140" y="352" width="4" height="4" fill="#e5484d"/><rect x="140" y="348" width="4" height="4" fill="#e5484d"/><rect x="136" y="348" width="4" height="4" fill="#e5484d"/><rect x="136" y="344" width="4" height="4" fill="#e5484d"/><rect x="136" y="340" width="4" height="4" fill="#e5484d"/><rect x="136" y="336" width="4" height="4" fill="#e5484d"/><rect x="136" y="332" width="4" height="4" fill="#e5484d"/><rect x="132" y="328" width="4" height="4" fill="#e5484d"/><rect x="132" y="324" width="4" height="4" fill="#e5484d"/><rect x="132" y="320" width="4" height="4" fill="#e5484d"/><rect x="132" y="316" width="4" height="4" fill="#e5484d"/><rect x="132" y="312" width="4" height="4" fill="#e5484d"/><rect x="132" y="308" width="4" height="4" fill="#e5484d"/><rect x="132" y="304" width="4" height="4" fill="#e5484d"/><rect x="128" y="304" width="4" height="4" fill="#e5484d"/><rect x="128" y="300" width="4" height="4" fill="#e5484d"/><rect x="128" y="296" width="4" height="4" fill="#e5484d"/><rect x="128" y="292" width="4" height="4" fill="#e5484d"/><rect x="128" y="288" width="4" height="4" fill="#e5484d"/><rect x="128" y="284" width="4" height="4" fill="#e5484d"/><rect x="128" y="280" width="4" height="4" fill="#e5484d"/><rect x="128" y="276" width="4" height="4" fill="#e5484d"/><rect x="128" y="272" width="4" height="4" fill="#e5484d"/><rect x="128" y="268" width="4" height="4" fill="#e5484d"/><rect x="124" y="268" width="4" height="4" fill="#e5484d"/><rect x="124" y="264" width="4" height="4" fill="#e5484d"/><rect x="124" y="260" width="4" height="4" fill="#e5484d"/><rect x="124" y="256" width="4" height="4" fill="#e5484d"/><rect x="124" y="252" width="4" height="4" fill="#e5484d"/><rect x="124" y="248" width="4" height="4" fill="#e5484d"/><rect x="124" y="244" width="4" height="4" fill="#e5484d"/><rect x="124" y="240" width="4" height="4" fill="#e5484d"/><rect x="124" y="236" width="4" height="4" fill="#e5484d"/><rect x="124" y="232" width="4" height="4" fill="#e5484d"/><rect x="124" y="228" width="4" height="4" fill="#e5484d"/><rect x="124" y="224" width="4" height="4" fill="#e5484d"/><rect x="120" y="224" width="4" height="4" fill="#e5484d"/><rect x="120" y="220" width="4" height="4" fill="#e5484d"/><rect x="120" y="216" width="4" height="4" fill="#e5484d"/><rect x="120" y="212" width="4" height="4" fill="#e5484d"/><rect x="120" y="208" width="4" height="4" fill="#e5484d"/><rect x="120" y="204" width="4" height="4" fill="#e5484d"/><rect x="120" y="200" width="4" height="4" fill="#e5484d"/></g>
<g shape-rendering="crispEdges"><rect x="144" y="346" width="12" height="10" fill="#c9d1d9"/></g>
<g shape-rendering="crispEdges"><rect x="228" y="348" width="4" height="4" fill="#f0b429"/><rect x="228" y="352" width="4" height="4" fill="#f0b429"/><rect x="232" y="352" width="4" height="4" fill="#f0b429"/><rect x="232" y="356" width="4" height="4" fill="#f0b429"/><rect x="236" y="356" width="4" height="4" fill="#f0b429"/><rect x="240" y="356" width="4" height="4" fill="#f0b429"/><rect x="244" y="356" width="4" height="4" fill="#f0b429"/><rect x="244" y="352" width="4" height="4" fill="#f0b429"/><rect x="244" y="348" width="4" height="4" fill="#f0b429"/><rect x="248" y="348" width="4" height="4" fill="#f0b429"/><rect x="248" y="344" width="4" height="4" fill="#f0b429"/><rect x="252" y="344" width="4" height="4" fill="#f0b429"/><rect x="252" y="340" width="4" height="4" fill="#f0b429"/><rect x="252" y="336" width="4" height="4" fill="#f0b429"/><rect x="252" y="332" width="4" height="4" fill="#f0b429"/><rect x="256" y="332" width="4" height="4" fill="#f0b429"/><rect x="256" y="328" width="4" height="4" fill="#f0b429"/><rect x="256" y="324" width="4" height="4" fill="#f0b429"/><rect x="256" y="320" width="4" height="4" fill="#f0b429"/><rect x="260" y="316" width="4" height="4" fill="#f0b429"/><rect x="260" y="312" width="4" height="4" fill="#f0b429"/><rect x="260" y="308" width="4" height="4" fill="#f0b429"/><rect x="260" y="304" width="4" height="4" fill="#f0b429"/><rect x="260" y="300" width="4" height="4" fill="#f0b429"/><rect x="264" y="300" width="4" height="4" fill="#f0b429"/><rect x="264" y="296" width="4" height="4" fill="#f0b429"/><rect x="264" y="292" width="4" height="4" fill="#f0b429"/><rect x="264" y="288" width="4" height="4" fill="#f0b429"/><rect x="264" y="284" width="4" height="4" fill="#f0b429"/><rect x="264" y="280" width="4" height="4" fill="#f0b429"/><rect x="268" y="280" width="4" height="4" fill="#f0b429"/><rect x="268" y="276" width="4" height="4" fill="#f0b429"/><rect x="268" y="272" width="4" height="4" fill="#f0b429"/><rect x="268" y="268" width="4" height="4" fill="#f0b429"/><rect x="268" y="264" width="4" height="4" fill="#f0b429"/><rect x="268" y="260" width="4" height="4" fill="#f0b429"/><rect x="268" y="256" width="4" height="4" fill="#f0b429"/><rect x="272" y="256" width="4" height="4" fill="#f0b429"/><rect x="272" y="252" width="4" height="4" fill="#f0b429"/><rect x="272" y="248" width="4" height="4" fill="#f0b429"/><rect x="272" y="244" width="4" height="4" fill="#f0b429"/></g>
<g shape-rendering="crispEdges"><rect x="224" y="346" width="12" height="10" fill="#c9d1d9"/></g>
<g shape-rendering="crispEdges"><rect x="420" y="348" width="4" height="4" fill="#4fd1b5"/><rect x="420" y="352" width="4" height="4" fill="#4fd1b5"/><rect x="420" y="356" width="4" height="4" fill="#4fd1b5"/><rect x="420" y="344" width="4" height="4" fill="#4fd1b5"/><rect x="420" y="340" width="4" height="4" fill="#4fd1b5"/><rect x="420" y="336" width="4" height="4" fill="#4fd1b5"/><rect x="420" y="332" width="4" height="4" fill="#4fd1b5"/><rect x="420" y="328" width="4" height="4" fill="#4fd1b5"/><rect x="420" y="324" width="4" height="4" fill="#4fd1b5"/><rect x="420" y="320" width="4" height="4" fill="#4fd1b5"/><rect x="420" y="316" width="4" height="4" fill="#4fd1b5"/><rect x="420" y="312" width="4" height="4" fill="#4fd1b5"/><rect x="420" y="308" width="4" height="4" fill="#4fd1b5"/><rect x="420" y="304" width="4" height="4" fill="#4fd1b5"/><rect x="420" y="300" width="4" height="4" fill="#4fd1b5"/><rect x="424" y="300" width="4" height="4" fill="#4fd1b5"/><rect x="424" y="296" width="4" height="4" fill="#4fd1b5"/><rect x="424" y="292" width="4" height="4" fill="#4fd1b5"/><rect x="424" y="288" width="4" height="4" fill="#4fd1b5"/><rect x="424" y="284" width="4" height="4" fill="#4fd1b5"/><rect x="424" y="280" width="4" height="4" fill="#4fd1b5"/><rect x="424" y="276" width="4" height="4" fill="#4fd1b5"/><rect x="424" y="272" width="4" height="4" fill="#4fd1b5"/><rect x="424" y="268" width="4" height="4" fill="#4fd1b5"/><rect x="424" y="264" width="4" height="4" fill="#4fd1b5"/><rect x="424" y="260" width="4" height="4" fill="#4fd1b5"/><rect x="424" y="256" width="4" height="4" fill="#4fd1b5"/><rect x="424" y="252" width="4" height="4" fill="#4fd1b5"/><rect x="424" y="248" width="4" height="4" fill="#4fd1b5"/><rect x="424" y="244" width="4" height="4" fill="#4fd1b5"/><rect x="424" y="240" width="4" height="4" fill="#4fd1b5"/><rect x="424" y="236" width="4" height="4" fill="#4fd1b5"/><rect x="424" y="232" width="4" height="4" fill="#4fd1b5"/><rect x="424" y="228" width="4" height="4" fill="#4fd1b5"/><rect x="424" y="224" width="4" height="4" fill="#4fd1b5"/><rect x="424" y="220" width="4" height="4" fill="#4fd1b5"/><rect x="424" y="216" width="4" height="4" fill="#4fd1b5"/><rect x="424" y="212" width="4" height="4" fill="#4fd1b5"/><rect x="424" y="208" width="4" height="4" fill="#4fd1b5"/><rect x="424" y="204" width="4" height="4" fill="#4fd1b5"/><rect x="424" y="200" width="4" height="4" fill="#4fd1b5"/></g>
<g shape-rendering="crispEdges"><rect x="414" y="346" width="12" height="10" fill="#c9d1d9"/></g>
<g shape-rendering="crispEdges"><rect x="560" y="348" width="4" height="4" fill="#6b9cff"/><rect x="560" y="352" width="4" height="4" fill="#6b9cff"/><rect x="560" y="356" width="4" height="4" fill="#6b9cff"/><rect x="564" y="356" width="4" height="4" fill="#6b9cff"/><rect x="564" y="352" width="4" height="4" fill="#6b9cff"/><rect x="564" y="348" width="4" height="4" fill="#6b9cff"/><rect x="568" y="348" width="4" height="4" fill="#6b9cff"/><rect x="568" y="344" width="4" height="4" fill="#6b9cff"/><rect x="568" y="340" width="4" height="4" fill="#6b9cff"/><rect x="568" y="336" width="4" height="4" fill="#6b9cff"/><rect x="568" y="332" width="4" height="4" fill="#6b9cff"/><rect x="568" y="328" width="4" height="4" fill="#6b9cff"/><rect x="568" y="324" width="4" height="4" fill="#6b9cff"/><rect x="568" y="320" width="4" height="4" fill="#6b9cff"/><rect x="572" y="320" width="4" height="4" fill="#6b9cff"/><rect x="572" y="316" width="4" height="4" fill="#6b9cff"/><rect x="572" y="312" width="4" height="4" fill="#6b9cff"/><rect x="572" y="308" width="4" height="4" fill="#6b9cff"/><rect x="572" y="304" width="4" height="4" fill="#6b9cff"/><rect x="572" y="300" width="4" height="4" fill="#6b9cff"/><rect x="572" y="296" width="4" height="4" fill="#6b9cff"/><rect x="572" y="292" width="4" height="4" fill="#6b9cff"/><rect x="572" y="288" width="4" height="4" fill="#6b9cff"/><rect x="572" y="284" width="4" height="4" fill="#6b9cff"/><rect x="572" y="280" width="4" height="4" fill="#6b9cff"/><rect x="572" y="276" width="4" height="4" fill="#6b9cff"/><rect x="576" y="272" width="4" height="4" fill="#6b9cff"/><rect x="576" y="268" width="4" height="4" fill="#6b9cff"/><rect x="576" y="264" width="4" height="4" fill="#6b9cff"/><rect x="576" y="260" width="4" height="4" fill="#6b9cff"/><rect x="576" y="256" width="4" height="4" fill="#6b9cff"/><rect x="576" y="252" width="4" height="4" fill="#6b9cff"/><rect x="576" y="248" width="4" height="4" fill="#6b9cff"/><rect x="576" y="244" width="4" height="4" fill="#6b9cff"/></g>
<g shape-rendering="crispEdges"><rect x="554" y="346" width="12" height="10" fill="#c9d1d9"/></g>
<g shape-rendering="crispEdges"><rect x="324" y="290" width="28" height="7" fill="#3b2416"/><rect x="317" y="297" width="42" height="7" fill="#3b2416"/><rect x="310" y="304" width="56" height="7" fill="#3b2416"/><rect x="303" y="311" width="7" height="7" fill="#111111"/><rect x="310" y="311" width="56" height="7" fill="#3b2416"/><rect x="366" y="311" width="7" height="7" fill="#111111"/><rect x="303" y="318" width="7" height="7" fill="#111111"/><rect x="310" y="318" width="56" height="7" fill="#3b2416"/><rect x="366" y="318" width="7" height="7" fill="#111111"/><rect x="310" y="325" width="56" height="7" fill="#3b2416"/><rect x="317" y="332" width="42" height="7" fill="#3b2416"/><rect x="324" y="339" width="28" height="7" fill="#e0b48c"/><rect x="310" y="346" width="56" height="7" fill="#4a6fa5"/><rect x="303" y="353" width="77" height="7" fill="#4a6fa5"/><rect x="296" y="360" width="84" height="7" fill="#4a6fa5"/><rect x="296" y="367" width="84" height="7" fill="#4a6fa5"/><rect x="296" y="374" width="28" height="7" fill="#4a6fa5"/><rect x="324" y="374" width="7" height="7" fill="#dbe7f5"/><rect x="331" y="374" width="49" height="7" fill="#4a6fa5"/><rect x="296" y="381" width="84" height="7" fill="#4a6fa5"/><rect x="296" y="388" width="84" height="7" fill="#2b3641"/><rect x="296" y="395" width="7" height="7" fill="#2b3641"/><rect x="373" y="395" width="7" height="7" fill="#2b3641"/><rect x="296" y="402" width="7" height="7" fill="#2b3641"/><rect x="373" y="402" width="7" height="7" fill="#2b3641"/></g>
<g shape-rendering="crispEdges"><rect x="373" y="346" width="14" height="14" fill="#4a6fa5"/><rect x="380" y="325" width="14" height="21" fill="#4a6fa5"/><rect x="387" y="311" width="14" height="14" fill="#4a6fa5"/><rect x="394" y="297" width="14" height="14" fill="#e0b48c"/></g>
<g shape-rendering="crispEdges"><rect x="400" y="304" width="4" height="4" fill="#2f9e5b"/><rect x="400" y="300" width="4" height="4" fill="#2f9e5b"/><rect x="400" y="296" width="4" height="4" fill="#2f9e5b"/><rect x="404" y="292" width="4" height="4" fill="#2f9e5b"/><rect x="404" y="288" width="4" height="4" fill="#2f9e5b"/><rect x="404" y="284" width="4" height="4" fill="#2f9e5b"/><rect x="408" y="284" width="4" height="4" fill="#2f9e5b"/><rect x="408" y="280" width="4" height="4" fill="#2f9e5b"/><rect x="408" y="276" width="4" height="4" fill="#2f9e5b"/><rect x="412" y="272" width="4" height="4" fill="#2f9e5b"/><rect x="412" y="268" width="4" height="4" fill="#2f9e5b"/><rect x="412" y="264" width="4" height="4" fill="#2f9e5b"/><rect x="416" y="264" width="4" height="4" fill="#2f9e5b"/><rect x="416" y="260" width="4" height="4" fill="#2f9e5b"/><rect x="416" y="256" width="4" height="4" fill="#2f9e5b"/><rect x="416" y="252" width="4" height="4" fill="#2f9e5b"/><rect x="420" y="252" width="4" height="4" fill="#2f9e5b"/><rect x="420" y="248" width="4" height="4" fill="#2f9e5b"/><rect x="420" y="244" width="4" height="4" fill="#2f9e5b"/><rect x="420" y="240" width="4" height="4" fill="#2f9e5b"/><rect x="424" y="240" width="4" height="4" fill="#2f9e5b"/><rect x="424" y="236" width="4" height="4" fill="#2f9e5b"/></g>
<g shape-rendering="crispEdges"><rect x="1132.00" y="46.00" width="4.55" height="4.55" fill="#2b3641"/><rect x="1136.50" y="46.00" width="4.55" height="4.55" fill="#2b3641"/><rect x="1141.00" y="46.00" width="4.55" height="4.55" fill="#2b3641"/><rect x="1145.50" y="46.00" width="4.55" height="4.55" fill="#2b3641"/><rect x="1150.00" y="46.00" width="4.55" height="4.55" fill="#2b3641"/><rect x="1154.50" y="46.00" width="4.55" height="4.55" fill="#2b3641"/><rect x="1159.00" y="46.00" width="4.55" height="4.55" fill="#2b3641"/><rect x="1163.50" y="46.00" width="4.55" height="4.55" fill="#2b3641"/><rect x="1168.00" y="46.00" width="4.55" height="4.55" fill="#2b3641"/><rect x="1172.50" y="46.00" width="4.55" height="4.55" fill="#2b3641"/><rect x="1177.00" y="46.00" width="4.55" height="4.55" fill="#2b3641"/><rect x="1181.50" y="46.00" width="4.55" height="4.55" fill="#2b3641"/><rect x="1186.00" y="46.00" width="4.55" height="4.55" fill="#2b3641"/><rect x="1190.50" y="46.00" width="4.55" height="4.55" fill="#2b3641"/><rect x="1195.00" y="46.00" width="4.55" height="4.55" fill="#2b3641"/><rect x="1199.50" y="46.00" width="4.55" height="4.55" fill="#2b3641"/><rect x="1132.00" y="50.50" width="4.55" height="4.55" fill="#2b3641"/><rect x="1199.50" y="50.50" width="4.55" height="4.55" fill="#2b3641"/><rect x="1132.00" y="55.00" width="4.55" height="4.55" fill="#2b3641"/><rect x="1145.50" y="55.00" width="4.55" height="4.55" fill="#4a5866"/><rect x="1168.00" y="55.00" width="4.55" height="4.55" fill="#4a5866"/><rect x="1186.00" y="55.00" width="4.55" height="4.55" fill="#4a5866"/><rect x="1199.50" y="55.00" width="4.55" height="4.55" fill="#2b3641"/><rect x="1132.00" y="59.50" width="4.55" height="4.55" fill="#2b3641"/><rect x="1145.50" y="59.50" width="4.55" height="4.55" fill="#4a5866"/><rect x="1168.00" y="59.50" width="4.55" height="4.55" fill="#4a5866"/><rect x="1186.00" y="59.50" width="4.55" height="4.55" fill="#4a5866"/><rect x="1199.50" y="59.50" width="4.55" height="4.55" fill="#2b3641"/><rect x="1132.00" y="64.00" width="4.55" height="4.55" fill="#2b3641"/><rect x="1145.50" y="64.00" width="4.55" height="4.55" fill="#4a5866"/><rect x="1163.50" y="64.00" width="4.55" height="4.55" fill="#4fd1b5"/><rect x="1168.00" y="64.00" width="4.55" height="4.55" fill="#4fd1b5"/><rect x="1172.50" y="64.00" width="4.55" height="4.55" fill="#4fd1b5"/><rect x="1186.00" y="64.00" width="4.55" height="4.55" fill="#4a5866"/><rect x="1199.50" y="64.00" width="4.55" height="4.55" fill="#2b3641"/><rect x="1132.00" y="68.50" width="4.55" height="4.55" fill="#2b3641"/><rect x="1145.50" y="68.50" width="4.55" height="4.55" fill="#4a5866"/><rect x="1163.50" y="68.50" width="4.55" height="4.55" fill="#4fd1b5"/><rect x="1168.00" y="68.50" width="4.55" height="4.55" fill="#4fd1b5"/><rect x="1172.50" y="68.50" width="4.55" height="4.55" fill="#4fd1b5"/><rect x="1186.00" y="68.50" width="4.55" height="4.55" fill="#4a5866"/><rect x="1199.50" y="68.50" width="4.55" height="4.55" fill="#2b3641"/><rect x="1132.00" y="73.00" width="4.55" height="4.55" fill="#2b3641"/><rect x="1145.50" y="73.00" width="4.55" height="4.55" fill="#4a5866"/><rect x="1168.00" y="73.00" width="4.55" height="4.55" fill="#4a5866"/><rect x="1181.50" y="73.00" width="4.55" height="4.55" fill="#6b9cff"/><rect x="1186.00" y="73.00" width="4.55" height="4.55" fill="#6b9cff"/><rect x="1190.50" y="73.00" width="4.55" height="4.55" fill="#6b9cff"/><rect x="1199.50" y="73.00" width="4.55" height="4.55" fill="#2b3641"/><rect x="1132.00" y="77.50" width="4.55" height="4.55" fill="#2b3641"/><rect x="1145.50" y="77.50" width="4.55" height="4.55" fill="#4a5866"/><rect x="1168.00" y="77.50" width="4.55" height="4.55" fill="#4a5866"/><rect x="1181.50" y="77.50" width="4.55" height="4.55" fill="#6b9cff"/><rect x="1186.00" y="77.50" width="4.55" height="4.55" fill="#6b9cff"/><rect x="1190.50" y="77.50" width="4.55" height="4.55" fill="#6b9cff"/><rect x="1199.50" y="77.50" width="4.55" height="4.55" fill="#2b3641"/><rect x="1132.00" y="82.00" width="4.55" height="4.55" fill="#2b3641"/><rect x="1141.00" y="82.00" width="4.55" height="4.55" fill="#2f9e5b"/><rect x="1145.50" y="82.00" width="4.55" height="4.55" fill="#2f9e5b"/><rect x="1150.00" y="82.00" width="4.55" height="4.55" fill="#2f9e5b"/><rect x="1168.00" y="82.00" width="4.55" height="4.55" fill="#4a5866"/><rect x="1186.00" y="82.00" width="4.55" height="4.55" fill="#4a5866"/><rect x="1199.50" y="82.00" width="4.55" height="4.55" fill="#2b3641"/><rect x="1132.00" y="86.50" width="4.55" height="4.55" fill="#2b3641"/><rect x="1141.00" y="86.50" width="4.55" height="4.55" fill="#2f9e5b"/><rect x="1145.50" y="86.50" width="4.55" height="4.55" fill="#2f9e5b"/><rect x="1150.00" y="86.50" width="4.55" height="4.55" fill="#2f9e5b"/><rect x="1168.00" y="86.50" width="4.55" height="4.55" fill="#4a5866"/><rect x="1186.00" y="86.50" width="4.55" height="4.55" fill="#4a5866"/><rect x="1199.50" y="86.50" width="4.55" height="4.55" fill="#2b3641"/><rect x="1132.00" y="91.00" width="4.55" height="4.55" fill="#2b3641"/><rect x="1145.50" y="91.00" width="4.55" height="4.55" fill="#4a5866"/><rect x="1168.00" y="91.00" width="4.55" height="4.55" fill="#4a5866"/><rect x="1186.00" y="91.00" width="4.55" height="4.55" fill="#4a5866"/><rect x="1199.50" y="91.00" width="4.55" height="4.55" fill="#2b3641"/><rect x="1132.00" y="95.50" width="4.55" height="4.55" fill="#2b3641"/><rect x="1145.50" y="95.50" width="4.55" height="4.55" fill="#4a5866"/><rect x="1168.00" y="95.50" width="4.55" height="4.55" fill="#4a5866"/><rect x="1186.00" y="95.50" width="4.55" height="4.55" fill="#4a5866"/><rect x="1199.50" y="95.50" width="4.55" height="4.55" fill="#2b3641"/><rect x="1132.00" y="100.00" width="4.55" height="4.55" fill="#2b3641"/><rect x="1145.50" y="100.00" width="4.55" height="4.55" fill="#4a5866"/><rect x="1168.00" y="100.00" width="4.55" height="4.55" fill="#4a5866"/><rect x="1186.00" y="100.00" width="4.55" height="4.55" fill="#4a5866"/><rect x="1199.50" y="100.00" width="4.55" height="4.55" fill="#2b3641"/><rect x="1132.00" y="104.50" width="4.55" height="4.55" fill="#2b3641"/><rect x="1145.50" y="104.50" width="4.55" height="4.55" fill="#4a5866"/><rect x="1168.00" y="104.50" width="4.55" height="4.55" fill="#4a5866"/><rect x="1186.00" y="104.50" width="4.55" height="4.55" fill="#4a5866"/><rect x="1199.50" y="104.50" width="4.55" height="4.55" fill="#2b3641"/><rect x="1132.00" y="109.00" width="4.55" height="4.55" fill="#2b3641"/><rect x="1199.50" y="109.00" width="4.55" height="4.55" fill="#2b3641"/><rect x="1132.00" y="113.50" width="4.55" height="4.55" fill="#2b3641"/><rect x="1136.50" y="113.50" width="4.55" height="4.55" fill="#2b3641"/><rect x="1141.00" y="113.50" width="4.55" height="4.55" fill="#2b3641"/><rect x="1145.50" y="113.50" width="4.55" height="4.55" fill="#2b3641"/><rect x="1150.00" y="113.50" width="4.55" height="4.55" fill="#2b3641"/><rect x="1154.50" y="113.50" width="4.55" height="4.55" fill="#2b3641"/><rect x="1159.00" y="113.50" width="4.55" height="4.55" fill="#2b3641"/><rect x="1163.50" y="113.50" width="4.55" height="4.55" fill="#2b3641"/><rect x="1168.00" y="113.50" width="4.55" height="4.55" fill="#2b3641"/><rect x="1172.50" y="113.50" width="4.55" height="4.55" fill="#2b3641"/><rect x="1177.00" y="113.50" width="4.55" height="4.55" fill="#2b3641"/><rect x="1181.50" y="113.50" width="4.55" height="4.55" fill="#2b3641"/><rect x="1186.00" y="113.50" width="4.55" height="4.55" fill="#2b3641"/><rect x="1190.50" y="113.50" width="4.55" height="4.55" fill="#2b3641"/><rect x="1195.00" y="113.50" width="4.55" height="4.55" fill="#2b3641"/><rect x="1199.50" y="113.50" width="4.55" height="4.55" fill="#2b3641"/></g>
<circle cx="750" cy="80.0" r="10" fill="none" stroke="#4fd1b5" stroke-width="2"/><path d="M740 80.0H760M750 70.0V90.0" stroke="#4fd1b5" stroke-width="2"/>
<text x="772" y="92" font-family="ui-monospace, SFMono-Regular, Menlo, Consolas, 'Liberation Mono', monospace" font-size="40" fill="#e6edf3" font-weight="bold" text-anchor="start" xml:space="preserve" letter-spacing="3">SWITCHBOARD</text>
<circle cx="1092.88" cy="80.0" r="10" fill="none" stroke="#4fd1b5" stroke-width="2"/><path d="M1082.88 80.0H1102.88M1092.88 70.0V90.0" stroke="#4fd1b5" stroke-width="2"/>
<text x="752" y="132" font-family="ui-monospace, SFMono-Regular, Menlo, Consolas, 'Liberation Mono', monospace" font-size="17" fill="#8b949e" font-weight="normal" text-anchor="start" xml:space="preserve">every switch on your Mac, one click away</text>
<text x="752" y="160" font-family="ui-monospace, SFMono-Regular, Menlo, Consolas, 'Liberation Mono', monospace" font-size="15" fill="#6b9cff" font-weight="bold" text-anchor="start" xml:space="preserve">four tabs, one icon, no cloud</text>
<polygon points="759,201 766,208 759,215 752,208" fill="none" stroke="#4fd1b5" stroke-width="2"/>
<text x="776" y="214" font-family="ui-monospace, SFMono-Regular, Menlo, Consolas, 'Liberation Mono', monospace" font-size="15" fill="#4fd1b5" font-weight="bold" text-anchor="start" xml:space="preserve" letter-spacing="2">QUOTE OF THE DAY</text>
<text x="752" y="246" font-family="ui-monospace, SFMono-Regular, Menlo, Consolas, 'Liberation Mono', monospace" font-size="16" fill="#e6edf3" font-weight="normal" text-anchor="start" xml:space="preserve" font-style="italic">&quot;Perfection is achieved when</text>
<text x="752" y="268" font-family="ui-monospace, SFMono-Regular, Menlo, Consolas, 'Liberation Mono', monospace" font-size="16" fill="#e6edf3" font-weight="normal" text-anchor="start" xml:space="preserve" font-style="italic">there is nothing left to</text>
<text x="752" y="290" font-family="ui-monospace, SFMono-Regular, Menlo, Consolas, 'Liberation Mono', monospace" font-size="16" fill="#e6edf3" font-weight="normal" text-anchor="start" xml:space="preserve" font-style="italic">take away.&quot;</text>
<text x="752" y="312" font-family="ui-monospace, SFMono-Regular, Menlo, Consolas, 'Liberation Mono', monospace" font-size="15" fill="#6b9cff" font-weight="normal" text-anchor="start" xml:space="preserve">~ Antoine de Saint-Exupery</text>
<text x="759" y="346" font-family="ui-monospace, SFMono-Regular, Menlo, Consolas, 'Liberation Mono', monospace" font-size="19" fill="#4fd1b5" font-weight="bold" text-anchor="middle" xml:space="preserve">?</text>
<text x="776" y="346" font-family="ui-monospace, SFMono-Regular, Menlo, Consolas, 'Liberation Mono', monospace" font-size="15" fill="#4fd1b5" font-weight="bold" text-anchor="start" xml:space="preserve" letter-spacing="2">RIDDLE</text>
<text x="752" y="370" font-family="ui-monospace, SFMono-Regular, Menlo, Consolas, 'Liberation Mono', monospace" font-size="15" fill="#8b949e" font-weight="normal" text-anchor="start" xml:space="preserve">A switch that flips itself</text>
<text x="752" y="394" font-family="ui-monospace, SFMono-Regular, Menlo, Consolas, 'Liberation Mono', monospace" font-size="15" fill="#8b949e" font-weight="normal" text-anchor="start" xml:space="preserve">back after two hours?</text>
<path d="M24 428H1256M24 432H1256" stroke="#4fd1b5" stroke-opacity=".55" stroke-width="1.5"/>
<rect x="228" y="421" width="44" height="18" fill="#0d1117"/>
<polygon points="241,422 249,430 241,438 233,430" fill="#4fd1b5"/>
<polygon points="259,422 267,430 259,438 251,430" fill="#4fd1b5"/>
<rect x="1008" y="421" width="44" height="18" fill="#0d1117"/>
<polygon points="1021,422 1029,430 1021,438 1013,430" fill="#4fd1b5"/>
<polygon points="1039,422 1047,430 1039,438 1031,430" fill="#4fd1b5"/>
<circle cx="52" cy="456" r="7" fill="none" stroke="#6b9cff" stroke-width="2"/>
<circle cx="52" cy="456" r="2.5" fill="#6b9cff"/>
<text x="68" y="462" font-family="ui-monospace, SFMono-Regular, Menlo, Consolas, 'Liberation Mono', monospace" font-size="15" fill="#8b949e" font-weight="normal" text-anchor="start" xml:space="preserve">no server, no account, no cloud</text>
<text x="1228" y="462" font-family="ui-monospace, SFMono-Regular, Menlo, Consolas, 'Liberation Mono', monospace" font-size="13" fill="#8b949e" font-weight="normal" text-anchor="end" xml:space="preserve" font-style="italic">answer to the riddle: see below</text>
</svg>
